<svg xmlns="http://www.w3.org/2000/svg" width="40" height="40"><path d="M 30.418 11.059 C 31.147 11.056 31.702 11.432 31.866 12.015 C 31.976 12.408 31.951 12.8 31.814 13.177 C 31.338 14.486 30.432 15.339 29.071 15.677 C 28.848 15.733 28.603 15.691 28.368 15.703 C 28.319 15.706 28.264 15.741 28.228 15.777 C 27.406 16.571 26.587 17.368 25.765 18.164 C 19.234 24.497 12.701 30.829 6.168 37.161 C 5.753 37.564 5.327 37.956 4.906 38.352 C 4.854 38.4 4.803 38.464 4.74 38.482 C 4.668 38.503 4.545 38.512 4.512 38.472 C 4.331 38.255 4.167 38.025 4.01 37.79 C 3.985 37.752 4.006 37.656 4.039 37.611 C 4.131 37.485 4.234 37.366 4.345 37.256 C 6.02 35.591 7.69 33.92 9.377 32.267 C 15.211 26.549 21.05 20.837 26.887 15.124 C 27.003 15.011 27.118 14.899 27.229 14.781 C 27.257 14.751 27.283 14.695 27.275 14.66 C 27.137 14.14 27.243 13.647 27.475 13.186 C 28.013 12.12 28.841 11.395 30.019 11.105 C 30.097 11.086 30.178 11.076 30.257 11.066 C 30.323 11.06 30.39 11.061 30.418 11.059 Z" fill="rgb(0,0,0)"></path><path d="M 29.425 0.816 C 29.425 1.065 29.418 1.301 29.426 1.536 C 29.461 2.451 29.472 3.365 29.338 4.275 C 29.276 4.693 29.133 5.081 28.946 5.456 C 28.876 5.596 28.826 5.744 28.756 5.883 C 28.728 5.94 28.68 5.996 28.627 6.029 C 27.289 6.865 26.458 8.086 25.964 9.552 C 25.59 10.66 25.475 11.794 25.782 12.938 C 25.88 13.301 26.055 13.643 26.191 13.996 C 26.22 14.073 26.315 14.167 26.21 14.236 C 26.102 14.306 26.037 14.193 25.982 14.123 C 25.639 13.689 25.451 13.185 25.348 12.649 C 25.075 11.222 25.33 9.866 25.931 8.566 C 26.471 7.399 27.24 6.415 28.333 5.709 C 28.448 5.635 28.512 5.544 28.571 5.426 C 28.908 4.757 29.019 4.037 29.023 3.303 C 29.029 2.479 28.994 1.655 28.973 0.83 C 28.968 0.641 29.075 0.514 29.267 0.503 C 29.769 0.477 30.235 0.614 30.674 0.841 C 31.611 1.324 32.317 2.057 32.884 2.928 C 33.598 4.026 34.025 5.223 34.092 6.539 C 34.096 6.606 34.134 6.683 34.177 6.737 C 35.586 8.475 36.261 10.434 35.906 12.676 C 35.511 15.16 33.475 16.909 30.955 16.976 C 30.222 16.996 29.507 16.904 28.807 16.689 C 28.585 16.62 28.5 16.517 28.541 16.372 C 28.581 16.232 28.712 16.193 28.938 16.259 C 30.003 16.564 31.079 16.655 32.154 16.341 C 33.959 15.813 35.048 14.593 35.451 12.776 C 35.781 11.284 35.51 9.852 34.867 8.488 C 34.624 7.972 34.299 7.494 34.008 7.001 C 33.987 6.966 33.942 6.932 33.903 6.925 C 33.718 6.89 33.662 6.834 33.661 6.641 C 33.654 6 33.531 5.378 33.321 4.775 C 32.869 3.475 32.149 2.356 31.037 1.517 C 30.602 1.189 30.119 0.949 29.579 0.838 C 29.53 0.826 29.479 0.823 29.425 0.816 Z" fill="rgb(0,0,0)"></path></svg>