<svg xmlns="http://www.w3.org/2000/svg" width="40" height="40"><path d="M 20.005 30 C 25.472 30 30 25.462 30 19.995 C 30 14.528 25.462 10 19.995 10 C 14.528 10 10 14.518 10 19.995 C 10 25.472 14.538 30 20.005 30 Z M 20.005 28.216 C 15.446 28.216 11.795 24.554 11.795 19.995 C 11.795 15.436 15.436 11.774 19.995 11.774 C 24.554 11.774 28.216 15.425 28.226 19.995 C 28.236 24.564 24.564 28.216 20.005 28.216 Z M 18.613 19.985 C 18.994 19.985 19.273 19.696 19.273 19.324 C 19.273 19.128 19.221 18.932 19.077 18.84 L 18.52 18.396 L 17.447 17.509 L 18.932 17.581 L 23.904 17.581 C 24.306 17.581 24.585 17.282 24.585 16.89 C 24.585 16.498 24.306 16.209 23.904 16.209 L 18.932 16.209 L 17.457 16.282 L 18.52 15.405 L 19.077 14.951 C 19.221 14.848 19.273 14.662 19.273 14.466 C 19.273 14.095 18.994 13.816 18.613 13.816 C 18.427 13.816 18.262 13.878 18.149 14.002 L 15.694 16.323 C 15.508 16.498 15.425 16.674 15.425 16.89 C 15.425 17.107 15.518 17.313 15.694 17.488 L 18.149 19.789 C 18.262 19.912 18.427 19.985 18.613 19.985 Z M 21.398 25.946 C 21.583 25.946 21.748 25.874 21.872 25.761 L 24.317 23.45 C 24.502 23.285 24.585 23.069 24.585 22.862 C 24.585 22.656 24.513 22.46 24.317 22.285 L 21.872 19.964 C 21.748 19.84 21.583 19.778 21.398 19.778 C 21.026 19.778 20.737 20.067 20.737 20.438 C 20.737 20.634 20.81 20.82 20.944 20.923 L 21.49 21.377 L 22.553 22.243 L 21.088 22.171 L 16.117 22.171 C 15.714 22.171 15.425 22.46 15.425 22.862 C 15.425 23.265 15.714 23.553 16.117 23.553 L 21.088 23.553 L 22.563 23.471 L 21.49 24.368 L 20.944 24.801 C 20.81 24.894 20.737 25.09 20.737 25.286 C 20.737 25.658 21.026 25.946 21.398 25.946 Z" fill="rgba(255,255,255,1)"></path></svg>